PathFileType	4	(X/Y/Z)	C:/Users/beibeiliu/ov580/test_trc/User3\sequence.23_training_dense_left.trc
DataRate	CameraRate	NumFrames	NumMarkers	Units	OrigDataRate	OrigDataStartFrame	OrigNumFrames
120	120	9	19	mm	120	62	92
Frame#	Time	ThumbCMC			ThumbMCP			ThumbIP			ThumbTip			IndexMCP			IndexPIP			IndexTip			MiddleMCP			MiddlePIP			MiddleTip			RingMCP			RingPIP			RingTip			PinkyMCP			PinkyPIP			PinkyTip			BackHand1			BackHand2			BackHand3	
		X0	Y0	Z0	X1	Y1	Z1	X2	Y2	Z2	X3	Y3	Z3	X4	Y4	Z4	X5	Y5	Z5	X6	Y6	Z6	X7	Y7	Z7	X8	Y8	Z8	X9	Y9	Z9	X10	Y10	Z10	X11	Y11	Z11	X12	Y12	Z12	X13	Y13	Z13	X14	Y14	Z14	X15	Y15	Z15	X16	Y16	Z16	X17	Y17	Z17	X18	Y18	Z18	
61	0.508333	-103.55	-55.1952	51.499	-97.1479	-84.5685	37.661	-91.9558	-108.992	20.6491	-90.0346	-128.928	6.36865	-111.071	-86.6246	-16.5337	-99.9234	-110.319	-28.1421	-88.6098	-132.095	-37.1043	-132.919	-99.2635	-19.9142	-128.627	-125.484	-28.4048	-119.802	-154.703	-36.559	-151.074	-107.071	5.8856	-136.991	-130.406	22.857	-128.286	-124.931	54.8519	-164.651	-109.319	19.846	-147.014	-121.055	38.8972	-134.891	-104.512	57.7947	-163.041	-55.0536	18.1659	-164.264	-35.9447	44.4881	-128.951	-33.5569	29.0349	
62	0.516667	-99.0378	-31.9914	49.5398	-84.1065	-61.0263	34.0605	-72.7134	-80.5561	21.9561	-62.7154	-99.6638	7.13369	-91.0414	-70.1809	-18.2014	-75.1134	-86.0903	-25.856	-59.7428	-108.704	-34.2719	-110.643	-86.2733	-17.7005	-93.189	-110.274	-25.3863	-80.1996	-136.275	-29.6607	-122.237	-100.022	8.23125	-102.812	-114.151	25.3776	-96.6331	-103.358	58.7399	-136.471	-102.639	21.6017	-117.177	-108.412	42.3022	-110.682	-87.9479	64.1475	-154.055	-48.221	18.8699	-159.848	-32.1275	42.2765	-129.886	-23.6096	25.2275	
63	0.525	-103.946	-8.09617	43.7177	-79.2476	-27.2741	31.0477	-60.8018	-43.045	16.4893	-44.8302	-56.9301	4.43557	-81.6083	-42.6193	-19.7866	-57.8681	-53.4342	-28.1211	-36.3881	-64.2218	-36.2323	-90.8726	-67.879	-17.811	-68.3925	-79.1195	-23.1021	-39.7475	-94.8913	-27.3082	-98.1833	-77.979	8.99765	-72.3386	-81.8149	29.8464	-72.4273	-69.0548	59.0928	-108.739	-85.167	22.3885	-88.4129	-83.1889	44.6293	-88.606	-58.3074	62.2113	-144.768	-46.7803	17.4191	-163.215	-35.4308	42.3925	-135.192	-13.6009	18.5661	
64	0.533333	-117.374	9.54704	34.989	-87.0532	6.58358	24.3718	-60.7851	-2.18704	3.02918	-45.0346	-9.63044	-4.80194	-81.566	-16.4122	-27.3796	-56.7577	-15.0828	-36.6285	-37.1118	-13.7565	-44.145	-81.1819	-39.4464	-23.4781	-52.9304	-43.8865	-29.07	-22.8157	-47.0903	-34.6727	-77.4414	-52.7455	7.52094	-55.5674	-42.5316	25.9277	-60.2321	-24.0996	53.6317	-84.8384	-58.3329	21.9537	-68.4621	-45.4094	41.8028	-78.3893	-28.6829	62.805	-136.125	-45.8698	16.4834	-154.074	-37.3005	41.168	-141.044	-9.28004	16.6968	
65	0.541667	-135.26	18.6338	26.7281	-107.073	25.8348	6.97789	-85.758	29.5258	-6.86819	-66.9678	29.3348	-21.8902	-100.598	2.78641	-35.6667	-75.7809	12.8989	-48.7863	-55.3823	21.8949	-62.2183	-84.148	-17.4544	-31.7692	-57.6701	-12.2904	-39.5584	-32.4616	-4.67087	-48.375	-74.4795	-18.8744	-1.79429	-57.01	0.0191165	15.7807	-64.7635	13.9642	42.7349	-73.3258	-27.4628	15.992	-64.8601	-10.691	34.8774	-81.8647	6.97962	50.3274	-127.363	-41.5607	16.8466	-144.117	-43.6207	38.7865	-148.834	-15.6609	14.2324	
66	0.55	-152.752	15.7026	20.0998	-133.894	29.9289	-1.95601	-113.338	35.0626	-24.2035	-97.7613	40.6858	-40.4716	-122.262	2.19827	-44.3627	-105.997	16.9722	-62.4959	-90.3124	30.9296	-78.946	-96.4337	-14.2355	-40.8114	-82.2478	-1.42759	-54.6371	-54.8933	14.8541	-69.8759	-83.6599	-7.27485	-12.368	-69.4808	17.0674	-0.460588	-79.5464	34.4012	22.0836	-78.479	-16.5771	5.82872	-75.8101	9.33924	17.4725	-90.8735	19.1708	40.7182	-126.663	-41.8764	14.4675	-137.709	-43.1968	40.1979	-155.695	-23.4472	13.4083	
67	0.558333	-170.773	4.18257	15.7364	-156.023	16.6746	-9.60393	-142.692	21.9741	-38.4729	-127.043	22.1164	-56.1377	-145.627	-16.94	-50.2948	-138.872	-2.77902	-72.6435	-129.724	10.2741	-93.72	-120.778	-28.1128	-47.4384	-107.374	-16.0311	-69.7816	-90.6764	-1.02491	-89.8276	-104.011	-14.1065	-25.0738	-94.6884	16.7576	-19.2832	-103.982	34.5947	3.48955	-93.0492	-13.4103	-7.58782	-94.3109	12.1069	2.76958	-112.963	19.6303	24.4362	-133.744	-49.8216	13.8076	-142.131	-46.0258	40.197	-165.921	-34.5367	15.2491	
68	0.566667	-187.748	-3.62871	17.3795	-177.356	4.79138	-13.3071	-167.998	3.92993	-39.2895	-158.329	4.97266	-63.1852	-177.003	-34.5579	-52.4264	-171.976	-25.4126	-79.7355	-163.461	-16.7613	-99.2717	-151.892	-48.5905	-50.4991	-142.504	-40.5704	-73.6117	-133.124	-26.9945	-101.243	-132.674	-31.2567	-32.6085	-120.463	-1.00729	-34.1772	-120.763	20.2396	-12.0429	-114.766	-29.0479	-16.7694	-117.386	-0.943422	-12.3752	-131.063	10.6593	8.87888	-152.525	-58.7634	11.7165	-155.151	-54.8338	43.9448	-182.127	-43.1995	19.315	
69	0.575	-199.783	-4.56626	22.5843	-193.697	-2.24797	-12.7161	-190.009	-4.30028	-41.5325	-183.784	-5.2874	-62.6911	-212.078	-38.2595	-46.5708	-206.009	-33.8536	-74.2471	-199.21	-28.6881	-96.3466	-187.57	-58.0447	-49.246	-181.834	-54.8796	-71.8057	-173.584	-45.618	-103.912	-159.619	-45.6099	-33.0198	-143.947	-21.7834	-40.39	-139.891	4.74139	-21.8901	-143.85	-45.5848	-21.5187	-139.63	-18.5508	-19.7547	-142.063	-1.9276	1.49241	-180.414	-65.2608	20.2609	-176.866	-55.5835	51.1487	-205.834	-41.6785	27.3082	
